<svg width="513" height="257" viewBox="0 0 513 257" fill="none" xmlns="http://www.w3.org/2000/svg">
<path d="M101.025 97.3379C103.467 97.1751 105.811 96.5404 108.057 95.4336C110.303 94.2943 112.109 92.6341 113.477 90.4531C114.909 88.1419 115.625 85.3424 115.625 82.0547V81.5176C115.527 78.1322 114.258 75.5605 111.816 73.8027C110.71 72.9564 109.359 72.3053 107.764 71.8496C104.378 70.9382 100.863 70.2871 97.2168 69.8965C93.6035 69.4733 90.1042 68.4479 86.7188 66.8203C83.5938 65.3555 81.2663 63.2233 79.7363 60.4238C78.2389 57.5918 77.4902 54.5482 77.4902 51.293C77.4902 44.9453 79.7201 39.737 84.1797 35.668C88.8021 31.4036 94.6126 29.2715 101.611 29.2715H103.125C110.645 29.597 117.22 31.5827 122.852 35.2285L121.631 46.0195C121.501 47.1914 120.785 47.7773 119.482 47.7773H119.238C118.262 47.7122 117.48 47.0449 116.895 45.7754C115.592 42.9759 113.688 40.6159 111.182 38.6953C108.708 36.7747 106.071 35.7493 103.271 35.6191H102.539C99.7396 35.6191 97.2819 36.1074 95.166 37.084C93.7663 37.8001 92.6595 38.5814 91.8457 39.4277C91.0645 40.2741 90.3646 41.3158 89.7461 42.5527C89.2578 43.5618 88.8835 44.75 88.623 46.1172C88.3952 47.1263 88.2812 48.0703 88.2812 48.9492C88.2812 50.1211 88.4603 51.2116 88.8184 52.2207C89.4368 54.2064 90.4948 55.7201 91.9922 56.7617C93.099 57.6081 94.3197 58.194 95.6543 58.5195C96.4681 58.7474 97.4447 58.959 98.584 59.1543C99.7233 59.3496 100.928 59.5449 102.197 59.7402C104.053 60.0332 106.022 60.3424 108.105 60.668C110.221 60.9935 112.288 61.4492 114.307 62.0352C117.79 63.1745 120.394 64.6719 122.119 66.5273C123.356 67.9596 124.382 69.5221 125.195 71.2148C126.107 73.4609 126.562 75.9186 126.562 78.5879C126.562 85.8145 123.617 91.8366 117.725 96.6543C114.665 99.1608 111.279 101.016 107.568 102.221C104.574 103.165 101.383 103.702 97.998 103.832C97.2819 103.865 96.5658 103.881 95.8496 103.881C91.1947 103.881 86.5234 103.165 81.8359 101.732L77.0508 88.4023C76.9531 88.1419 76.9043 87.8815 76.9043 87.6211C76.9043 87.1328 77.0671 86.6608 77.3926 86.2051C77.8809 85.4238 78.6458 85.0332 79.6875 85.0332C80.5664 85.2611 81.2826 85.9447 81.8359 87.084C83.8216 91.4134 86.2793 94.278 89.209 95.6777C91.6178 96.8496 94.7103 97.4355 98.4863 97.4355C99.3001 97.4355 100.146 97.403 101.025 97.3379ZM162.406 98.2656L150.688 102.562C149.483 102.986 148.458 103.197 147.611 103.197H145.561C140.548 102.937 136.283 100.951 132.768 97.2402C129.219 93.4642 127.201 88.8906 126.713 83.5195C126.583 82.1523 126.518 80.8177 126.518 79.5156C126.518 77.7904 126.632 76.1139 126.859 74.4863C127.283 71.5892 128.406 68.7083 130.229 65.8438C131.107 64.3138 132.637 62.7188 134.818 61.0586C135.632 60.5052 136.527 60.0169 137.504 59.5938C140.141 58.6172 142.761 57.6406 145.365 56.6641C148.002 55.6875 150.639 54.7109 153.275 53.7344C153.992 53.474 154.675 53.3438 155.326 53.3438H155.619C157.833 53.4414 160.502 53.9948 163.627 55.0039C163.952 55.1016 164.148 55.1829 164.213 55.248C164.864 55.5085 165.694 55.8014 166.703 56.127C166.964 56.2246 167.208 56.2734 167.436 56.2734C167.631 56.2734 167.794 56.2246 167.924 56.127C168.542 55.6061 168.965 55.1829 169.193 54.8574C169.617 54.304 170.186 54.0273 170.902 54.0273C171.26 54.0273 171.586 54.0924 171.879 54.2227C173.083 54.6458 173.686 55.2643 173.686 56.0781V93.8711C173.686 95.5638 174.499 96.7031 176.127 97.2891C177.755 97.8424 178.568 98.7376 178.568 99.9746C178.568 101.309 177.82 101.977 176.322 101.977H164.457C163.09 101.977 162.406 101.439 162.406 100.365V98.2656ZM162.406 63.793C161.365 62.8164 159.818 61.8398 157.768 60.8633C155.749 59.8867 153.992 59.3659 152.494 59.3008H152.348C151.892 59.3008 151.404 59.3984 150.883 59.5938C149.711 60.0169 148.539 60.4564 147.367 60.9121C146.228 61.3353 145.072 61.7585 143.9 62.1816C143.282 62.4421 142.794 62.7676 142.436 63.1582C140.548 65.1764 139.278 67.6341 138.627 70.5312C138.074 72.8099 137.797 75.056 137.797 77.2695C137.797 77.9531 137.829 78.6693 137.895 79.418C138.253 83.9427 139.473 87.6048 141.557 90.4043C143.575 93.2363 146.081 95.0592 149.076 95.873C150.183 96.1986 151.306 96.3613 152.445 96.3613C152.803 96.3613 153.161 96.3451 153.52 96.3125C154.105 96.2474 154.838 96.0684 155.717 95.7754C156.465 95.515 157.637 95.0918 159.232 94.5059C160.827 93.8874 161.885 93.4805 162.406 93.2852V63.793ZM197.029 79.8086V93.8711C197.029 95.5638 197.843 96.7031 199.471 97.2891C201.098 97.8424 201.912 98.7376 201.912 99.9746C201.912 101.309 201.18 101.977 199.715 101.977H183.162C181.665 101.977 180.916 101.309 180.916 99.9746C180.916 98.7376 181.73 97.8424 183.357 97.2891C184.985 96.7031 185.799 95.5638 185.799 93.8711V39.623C185.799 37.9629 184.985 36.8398 183.357 36.2539C181.73 35.668 180.916 34.7402 180.916 33.4707C180.916 32.1361 181.648 31.4688 183.113 31.4688C185.132 31.3711 187.15 31.0618 189.168 30.541C191.219 29.9876 193.839 29.1738 197.029 28.0996V71.752L212.215 59.5938C214.266 57.9336 216.072 56.6152 217.635 55.6387C218.742 54.9876 219.816 54.6621 220.857 54.6621C221.671 54.6621 222.469 54.8737 223.25 55.2969L226.912 57.543C227.628 58.0312 227.986 58.5846 227.986 59.2031C227.986 59.4961 227.905 59.7728 227.742 60.0332L224.959 66.2832L221.248 64.3789C220.467 63.9883 219.734 63.793 219.051 63.793C218.27 63.793 217.505 64.0697 216.756 64.623C212.036 68.1387 208.146 71.1009 205.086 73.5098L221.346 89.3789C224.764 92.6992 226.928 94.571 227.84 94.9941C228.426 95.2546 228.995 95.3848 229.549 95.3848C229.777 95.3848 230.021 95.3685 230.281 95.3359C230.607 95.2383 230.949 95.1895 231.307 95.1895C232.511 95.1895 233.341 95.6615 233.797 96.6055C233.895 96.931 233.943 97.1914 233.943 97.3867C233.943 98.1029 233.569 98.6237 232.82 98.9492L229.695 100.414C227.807 101.26 226.033 101.684 224.373 101.684C223.234 101.684 222.16 101.472 221.15 101.049C218.872 100.137 216.805 98.7702 214.949 96.9473L197.273 79.7598C197.404 79.6296 197.469 79.5482 197.469 79.5156C197.436 79.5156 197.29 79.6133 197.029 79.8086ZM232.434 73.9004C233.378 67.6829 235.9 62.6699 240.002 58.8613C244.104 55.0527 249.507 53.1159 256.213 53.0508H256.408C263.212 53.0508 268.436 55.0039 272.082 58.9102C275.63 62.8164 277.404 67.8457 277.404 73.998C277.372 75.3327 277.307 76.4232 277.209 77.2695C277.111 78.1159 276.053 78.5391 274.035 78.5391H244.152C244.25 82.9987 245.503 86.8724 247.912 90.1602C250.354 93.4154 253.365 95.401 256.945 96.1172C257.987 96.3451 259.045 96.459 260.119 96.459C262.984 96.459 265.962 95.6126 269.055 93.9199C271.138 92.8132 272.619 92.2598 273.498 92.2598C273.954 92.2598 274.377 92.39 274.768 92.6504C275.093 92.9759 275.256 93.3503 275.256 93.7734C275.256 94.3268 275.012 95.043 274.523 95.9219C274.1 96.8008 273.742 97.3867 273.449 97.6797C273.189 97.9727 272.945 98.2331 272.717 98.4609C268.908 101.749 263.781 103.393 257.336 103.393C248.352 103.327 241.63 100.463 237.17 94.7988C233.719 90.4368 231.994 85.2936 231.994 79.3691C231.994 77.6113 232.141 75.7884 232.434 73.9004ZM244.201 73.0215H267.443C267.443 69.8314 266.581 66.6413 264.855 63.4512C263.358 60.6842 260.575 59.3008 256.506 59.3008H255.969C251.9 59.431 248.938 60.9772 247.082 63.9395C245.259 66.8691 244.299 69.8965 244.201 73.0215ZM283.902 60.7656C283.512 60.7656 282.079 60.8307 279.605 60.9609H279.312C277.913 60.9609 277.18 60.3099 277.115 59.0078V58.9102C277.115 58.0312 277.636 57.3477 278.678 56.8594C279.296 56.5664 280.615 55.8665 282.633 54.7598C283.154 54.4993 283.691 54.2552 284.244 54.0273C284.342 53.9948 284.391 53.9622 284.391 53.9297C284.391 53.8971 284.228 53.8809 283.902 53.8809V46.5078C283.902 44.6523 284.309 43.3503 285.123 42.6016C285.937 41.8203 287.597 40.8275 290.104 39.623C291.178 39.1022 292.089 38.8418 292.838 38.8418C294.4 38.8418 295.182 39.5905 295.182 41.0879V53.6855L305.582 53.4902H305.631C306.933 53.4902 307.584 54.2389 307.584 55.7363C307.584 56.2246 307.519 56.8268 307.389 57.543C306.933 59.6263 305.794 60.668 303.971 60.668L295.182 60.6191V90.2578C295.182 92.9271 296.093 94.9128 297.916 96.2148C299.771 97.5169 301.66 98.2982 303.58 98.5586V101.928C297.786 101.928 293.049 101.423 289.371 100.414C285.725 99.4049 283.902 95.5312 283.902 88.793V60.7656Z" fill="#F5F5F5"/>
<path d="M62.1094 178.175C46.6309 178.175 32.9102 173.243 20.9473 163.38C9.0332 153.517 3.07617 139.942 3.07617 122.657C3.07617 105.812 8.8623 92.2861 20.4346 82.0811C32.0557 71.8271 45.9473 66.7002 62.1094 66.7002C67.8711 66.7002 73.999 67.3594 80.4932 68.6777C87.0361 69.9473 93.5303 72.6328 99.9756 76.7344L98.1445 92.9941C97.7539 94.7031 96.6553 95.5576 94.8486 95.5576H94.5557C93.1885 95.46 92.0166 94.459 91.04 92.5547C88.0127 86.1094 84.3018 81.8369 79.9072 79.7373C75.5127 77.6377 69.5801 76.5879 62.1094 76.5879C51.7578 76.5879 42.5049 80.2256 34.3506 87.501C26.1963 94.7275 22.1191 106.446 22.1191 122.657C22.1191 133.009 25.9521 142.994 33.6182 152.613C41.2842 162.184 50.8057 167.237 62.1826 167.774C63.3545 167.823 64.4531 167.848 65.4785 167.848C70.752 167.848 75.1709 167.164 78.7354 165.797C82.8857 164.186 86.3525 160.963 89.1357 156.129V142.652C89.0869 141.676 88.5742 140.919 87.5977 140.382C86.377 139.698 84.3262 138.771 81.4453 137.599C78.6133 136.427 77.1973 135.035 77.1973 133.424C77.1973 131.422 78.3203 130.421 80.5664 130.421H109.937C112.183 130.421 113.306 131.422 113.306 133.424C113.306 135.328 112.085 136.72 109.644 137.599C107.202 138.478 105.981 140.162 105.981 142.652V172.535C97.4365 172.926 89.7461 173.976 82.9102 175.685C79.2969 176.661 75.7324 177.32 72.2168 177.662C68.7012 178.004 65.332 178.175 62.1094 178.175Z" fill="#F5F5F5"/>
<path d="M157.334 102.516C167.441 102.906 175.938 106.739 182.822 114.015C189.707 121.29 193.223 129.933 193.369 139.942V140.382C193.369 150.489 189.78 159.059 182.603 166.09C175.229 173.268 166.196 177.003 155.503 177.296H154.331C144.37 177.296 135.801 173.634 128.623 166.31C121.348 158.937 117.71 150.221 117.71 140.162V139.942C117.759 128.907 121.934 119.605 130.234 112.037C131.357 111.012 132.896 110.157 134.849 109.474C136.802 108.79 139.585 107.789 143.198 106.471C145.347 105.689 147.715 104.835 150.303 103.907C152.988 102.979 155.234 102.516 157.041 102.516H157.334ZM155.649 110.353H154.844C149.814 110.353 145.42 112.867 141.66 117.896C137.51 123.512 135.435 130.47 135.435 138.771C135.435 147.071 137.437 154.2 141.44 160.157C145.493 166.065 150.229 169.142 155.649 169.386H156.602C161.582 169.386 165.928 166.871 169.639 161.842C173.789 156.275 175.864 149.342 175.864 141.041C175.864 132.74 173.838 125.636 169.785 119.728C165.732 113.771 161.021 110.646 155.649 110.353Z" fill="#F5F5F5"/>
<path d="M216.81 176.213V197.307C216.81 199.846 218.03 201.555 220.472 202.434C222.913 203.264 224.134 204.606 224.134 206.462C224.134 208.464 223.035 209.465 220.838 209.465H196.009C193.763 209.465 192.64 208.464 192.64 206.462C192.64 204.606 193.86 203.264 196.302 202.434C198.743 201.555 199.964 199.846 199.964 197.307V115.935C199.964 113.444 198.743 111.76 196.302 110.881C193.86 110.002 192.64 108.61 192.64 106.706C192.64 104.704 193.738 103.703 195.936 103.703C198.963 103.557 201.99 103.093 205.018 102.312C208.094 101.481 212.024 100.261 216.81 98.6494V164.128L239.588 145.891C242.664 143.4 245.374 141.423 247.718 139.958C249.378 138.981 250.989 138.493 252.552 138.493C253.772 138.493 254.969 138.811 256.141 139.445L261.634 142.814C262.708 143.547 263.245 144.377 263.245 145.305C263.245 145.744 263.123 146.159 262.879 146.55L258.704 155.925L253.138 153.068C251.966 152.482 250.867 152.189 249.842 152.189C248.67 152.189 247.522 152.604 246.399 153.435C239.319 158.708 233.484 163.151 228.895 166.765L253.284 190.568C258.411 195.549 261.658 198.356 263.025 198.991C263.904 199.382 264.759 199.577 265.589 199.577C265.931 199.577 266.297 199.553 266.688 199.504C267.176 199.357 267.688 199.284 268.226 199.284C270.032 199.284 271.277 199.992 271.961 201.408C272.107 201.896 272.181 202.287 272.181 202.58C272.181 203.654 271.619 204.436 270.496 204.924L265.809 207.121C262.977 208.391 260.315 209.025 257.825 209.025C256.116 209.025 254.505 208.708 252.991 208.073C249.573 206.706 246.473 204.655 243.689 201.921L217.176 176.14C217.371 175.944 217.469 175.822 217.469 175.773C217.42 175.773 217.2 175.92 216.81 176.213Z" fill="#F5F5F5"/>
<path d="M290.345 202.307C290.345 204.846 291.565 206.555 294.007 207.434C296.448 208.264 297.669 209.606 297.669 211.462C297.669 213.464 296.57 214.465 294.373 214.465H269.544C267.298 214.465 266.175 213.464 266.175 211.462C266.175 209.606 267.396 208.264 269.837 207.434C272.278 206.555 273.499 204.846 273.499 202.307V120.935C273.499 118.444 272.278 116.76 269.837 115.881C267.396 115.002 266.175 113.61 266.175 111.706C266.175 109.704 267.273 108.703 269.471 108.703C272.498 108.557 275.525 108.093 278.553 107.312C281.629 106.481 285.56 105.261 290.345 103.649V148.181C291.321 147.839 292.835 147.277 294.886 146.496C296.937 145.715 298.89 145.007 300.745 144.372C305.433 142.712 310.267 141.638 315.247 141.149C315.931 141.101 316.614 141.076 317.298 141.076C321.888 141.076 326.209 142.614 330.262 145.69C336.561 150.524 339.71 160.607 339.71 175.939V202.307C339.71 204.846 340.931 206.555 343.372 207.434C345.813 208.264 347.034 209.606 347.034 211.462C347.034 213.464 345.936 214.465 343.738 214.465H325.94C323.89 214.465 322.864 213.659 322.864 212.048V175.939C322.864 165.588 320.789 158.386 316.639 154.333C314.148 151.892 311.146 150.671 307.63 150.671C305.53 150.671 303.211 151.086 300.672 151.916C299.598 152.307 298.23 152.819 296.57 153.454C294.959 154.04 293.543 154.577 292.322 155.065C291.199 155.456 290.54 155.7 290.345 155.798V202.307Z" fill="#F5F5F5"/>
<path d="M394.543 179.898L376.965 186.344C375.158 186.979 373.62 187.296 372.351 187.296H369.274C361.755 186.905 355.358 183.927 350.085 178.36C344.763 172.696 341.735 165.836 341.003 157.779C340.808 155.729 340.71 153.727 340.71 151.773C340.71 149.186 340.881 146.671 341.223 144.229C341.857 139.884 343.542 135.562 346.276 131.266C347.595 128.971 349.89 126.578 353.161 124.088C354.382 123.258 355.725 122.525 357.189 121.891C361.145 120.426 365.075 118.961 368.981 117.496C372.937 116.031 376.892 114.566 380.847 113.102C381.921 112.711 382.946 112.516 383.923 112.516H384.362C387.683 112.662 391.687 113.492 396.374 115.006C396.862 115.152 397.155 115.274 397.253 115.372C398.229 115.763 399.475 116.202 400.988 116.69C401.379 116.837 401.745 116.91 402.087 116.91C402.38 116.91 402.624 116.837 402.819 116.69C403.747 115.909 404.382 115.274 404.724 114.786C405.358 113.956 406.213 113.541 407.287 113.541C407.824 113.541 408.312 113.639 408.752 113.834C410.559 114.469 411.462 115.396 411.462 116.617V173.307C411.462 175.846 412.683 177.555 415.124 178.434C417.565 179.264 418.786 180.606 418.786 182.462C418.786 184.464 417.663 185.465 415.417 185.465H397.619C395.568 185.465 394.543 184.659 394.543 183.048V179.898ZM394.543 128.189C392.98 126.725 390.661 125.26 387.585 123.795C384.558 122.33 381.921 121.549 379.675 121.451H379.455C378.771 121.451 378.039 121.598 377.258 121.891C375.5 122.525 373.742 123.185 371.984 123.868C370.275 124.503 368.542 125.138 366.784 125.772C365.856 126.163 365.124 126.651 364.587 127.237C361.755 130.265 359.851 133.951 358.874 138.297C358.044 141.715 357.629 145.084 357.629 148.404C357.629 149.43 357.678 150.504 357.775 151.627C358.312 158.414 360.144 163.907 363.269 168.106C366.296 172.354 370.056 175.089 374.548 176.31C376.208 176.798 377.893 177.042 379.602 177.042C380.139 177.042 380.676 177.018 381.213 176.969C382.092 176.871 383.19 176.603 384.509 176.163C385.632 175.772 387.39 175.138 389.782 174.259C392.175 173.331 393.762 172.721 394.543 172.428V128.189Z" fill="#F5F5F5"/>
<path d="M437.81 138.307C437.81 140.846 439.03 142.555 441.472 143.434C443.913 144.264 445.134 145.606 445.134 147.462C445.134 149.464 444.035 150.465 441.838 150.465H417.009C414.763 150.465 413.64 149.464 413.64 147.462C413.64 145.606 414.86 144.264 417.302 143.434C419.743 142.555 420.964 140.846 420.964 138.307V56.9346C420.964 54.4443 419.743 52.7598 417.302 51.8809C414.86 51.002 413.64 49.6104 413.64 47.7061C413.64 45.7041 414.738 44.7031 416.936 44.7031C419.963 44.5566 422.99 44.0928 426.018 43.3115C429.094 42.4814 433.024 41.2607 437.81 39.6494V138.307Z" fill="#F5F5F5"/>
<path d="M509.338 133.351C507.922 124.024 504.138 116.505 497.985 110.792C491.833 105.079 483.728 102.174 473.669 102.076H473.376C463.171 102.076 455.334 105.006 449.865 110.865C444.543 116.725 441.882 124.269 441.882 133.497C441.931 135.499 442.028 137.135 442.175 138.404C442.321 139.674 443.908 140.309 446.936 140.309H491.76C491.613 146.998 489.733 152.809 486.12 157.74C482.458 162.623 477.941 165.602 472.57 166.676C471.008 167.018 469.421 167.188 467.81 167.188C463.513 167.188 459.045 165.919 454.406 163.38C451.281 161.72 449.06 160.89 447.741 160.89C447.058 160.89 446.423 161.085 445.837 161.476C445.349 161.964 445.104 162.525 445.104 163.16C445.104 163.99 445.471 165.064 446.203 166.383C446.838 167.701 447.375 168.58 447.814 169.02C448.205 169.459 448.571 169.85 448.913 170.191C454.626 175.123 462.316 177.589 471.984 177.589C485.461 177.491 495.544 173.194 502.233 164.698C507.409 158.155 509.997 150.44 509.997 141.554C509.997 138.917 509.777 136.183 509.338 133.351ZM491.687 132.032H456.823C456.823 127.247 458.117 122.462 460.705 117.677C462.951 113.526 467.126 111.451 473.229 111.451H474.035C480.139 111.646 484.582 113.966 487.365 118.409C490.1 122.804 491.54 127.345 491.687 132.032Z" fill="#F5F5F5"/>
<path d="M437.825 208.695L433.505 209.325C433.955 215.58 434.855 221.925 436.7 226.02C437.465 225.345 439.265 224.085 440.3 223.5C438.68 219.9 438.095 214.23 437.825 208.695ZM438.23 199.38H421.4V204.33H438.23V199.38ZM432.245 190.47H427.205V231.33H432.245V190.47ZM426.395 209.55L422.435 208.785C421.49 213.105 420.68 218.505 420.455 222.195L424.595 223.005C424.775 219.36 425.54 213.825 426.395 209.55ZM419.825 192.225H409.07V196.95H419.825V192.225ZM420.95 204.96H408.395V209.775H420.95V204.96ZM426.89 192.495L423.38 191.01C422.165 192.9 420.815 195.465 420.275 197.13L424.01 198.795C424.505 197.13 425.765 194.475 426.89 192.495ZM417.035 206.31H411.905V226.245C411.905 228.765 412.265 230.25 413.885 231.105C415.46 231.915 417.62 232.005 420.635 232.005C420.77 230.52 421.4 228.315 422.075 226.785C420.275 226.875 418.385 226.875 417.8 226.875C417.215 226.83 417.035 226.695 417.035 226.155V206.31ZM443.405 189.795L438.545 191.595C440.93 195.51 444.71 199.785 448.22 202.485C448.85 201.36 450.155 199.425 451.01 198.435C448.085 196.275 444.935 192.675 443.405 189.795ZM445.835 209.1L441.605 204.87L440.885 205.095V232.05H445.835V209.1ZM442.37 199.29L437.555 200.955C440.165 206.715 444.44 212.79 448.58 216.615C449.12 215.49 450.56 212.835 451.505 211.665C447.95 208.65 444.44 204.015 442.37 199.29ZM383.645 225.435H368.705V229.98H383.645V225.435ZM385.76 202.08H380.9V232.05H385.76V202.08ZM383.645 202.08H368.615V214.275H383.645V210H373.565V206.355H383.645V202.08ZM388.325 194.565H365.69V202.98H370.73V198.885H383.51V202.98H388.325V194.565ZM379.91 189.75H374.645V196.725H379.91V189.75ZM383.645 217.11H366.68V231.825H371.675V221.52H383.645V217.11ZM398.81 198.345H394.355V203.97H398.81V198.345ZM404.705 202.08H399.935V227.1H404.705V202.08ZM401.6 208.11H391.835V211.575H401.6V208.11ZM407.45 225.75C403.625 225.03 397.775 223.725 392.195 222.465L391.7 226.695C396.605 228.135 401.87 229.575 405.965 230.7L407.45 225.75ZM396.92 219.99L392.69 218.19C390.485 221.43 388.28 225.75 387.47 228.675L392.06 230.745C392.78 227.865 394.85 223.365 396.92 219.99ZM402.05 202.08H389.675V217.74H402.05V213.87H394.4V205.95H402.05V202.08ZM400.115 189.795H397.19V190.785H395.66V192.27C397.46 195.69 400.34 200.37 405.065 204.33C405.74 203.205 407.27 201.495 408.35 200.775C404.3 197.58 401.6 193.35 400.115 189.795ZM398.81 189.795H395.21C392.51 191.955 389.315 195.06 387.83 197.355L391.25 201.36C392.51 199.11 395.435 195.42 397.955 193.485H398.81V189.795Z" fill="#F5F5F5"/>
<path d="M501.94 188.07H457.115V193.9H501.94V188.07ZM499.41 196.65H459.315V202.205H499.41V196.65ZM504.14 205.065H454.915V210.95H504.14V205.065ZM504.525 214.305H454.31V220.08H504.525V214.305ZM483.02 191.7H476.255V209.74H483.02V191.7ZM495.285 183.45L489.4 181.14C487.695 183.01 486.045 185.595 485.33 187.52L491.49 190.16C492.04 188.235 493.635 185.43 495.285 183.45ZM470.645 181.14L463.605 182.9C465.31 185.43 467.07 187.74 468.445 189.335L474.44 187.63C473.12 185.815 471.525 183.065 470.645 181.14ZM483.79 209.905H476.805C478.07 222.17 481.37 229.54 502.215 232.895C502.71 231.135 504.25 228.44 505.515 227.01C486.76 224.535 484.78 219.365 483.79 209.905ZM475.265 216.065C472.02 222.94 465.09 226.13 453.155 226.955C454.53 228.385 456.29 231.19 457.115 233.06C470.315 231.465 477.135 226.9 481.315 217.11L475.265 216.065Z" fill="#F5F5F5"/>
<path d="M183.83 192.525H173.39V196.17H183.83V192.525ZM183.965 220.695H170.6V224.565H183.965V220.695ZM186.305 203.19H171.905V206.385H186.305V203.19ZM188.465 197.79H183.875V204.405C183.875 210.345 184.775 219.345 189.365 225.15C190.085 224.205 192.02 222.45 192.965 221.865C188.96 216.69 188.465 209.445 188.465 204.315V197.79ZM185.855 197.79H169.79V211.875H185.99V208.14H174.605V201.525H185.855V197.79ZM185.9 213.63H169.07V225.825H173.75V217.5H181.355V226.005H185.9V213.63ZM167.09 189.285H162.005V214.755H167.09V189.285ZM157.235 184.695H152.015V219.57C152.015 222.63 152.6 224.115 154.355 224.97C156.11 225.87 158.855 226.05 162.815 226.005C162.995 224.52 163.805 222.045 164.57 220.515C161.87 220.65 159.215 220.65 158.36 220.605C157.55 220.605 157.235 220.335 157.235 219.57V184.695ZM181.805 184.38H178.79V185.46H177.125V186.99C179.825 190.635 183.785 195.27 189.905 199.23C190.58 198.015 192.155 196.17 193.19 195.36C187.79 192.255 183.965 188.025 181.805 184.38ZM180.635 184.38H176.99C173.84 186.765 169.745 190.14 167.54 192.48L171.005 196.44C172.895 194.19 176.765 190.32 179.69 188.16H180.635V184.38ZM131 188.88H109.625V193.47H131V188.88ZM136.895 197.25H107.78V201.75H136.895V197.25ZM131.63 184.245L126.635 185.37C128.165 190.005 130.82 194.46 133.52 197.34C134.555 196.53 136.805 195.315 138.065 194.73C135.23 192.21 132.935 188.205 131.63 184.245ZM124.835 183.795H119.48V200.265H124.835V183.795ZM138.335 201.345V217.905H143.6V206.34H148.865V201.345H138.335ZM138.335 215.565C136.535 218.535 133.115 219.84 128.435 220.02C123.17 220.245 112.955 220.11 106.88 219.615C107.465 220.875 108.365 223.485 108.59 225.105C114.035 225.375 123.125 225.465 128.525 225.24C134.06 225.015 137.795 223.71 140.72 220.2C142.7 221.955 144.725 223.665 147.155 225.645L149.81 220.02C147.785 218.76 145.355 217.185 143.285 215.565H138.335ZM148.775 188.07L144.77 184.83C142.07 186.72 138.785 189.555 137.21 191.67L141.53 195.225C142.88 193.11 146.12 190.095 148.775 188.07ZM127.985 208.5V213.09H116.105V208.5H127.985ZM133.25 204.225H110.48V217.41H133.25V204.225ZM101.165 191.085H87.35V221.415H101.165V216.645H92.255V195.81H101.165V191.085ZM104.315 191.085H99.41V224.745H104.315V191.085ZM101.39 203.1H89.87V207.78H101.39V203.1ZM97.925 183.75L92.03 184.605C93.065 187.665 94.19 190.86 95.09 192.975L99.41 192.03C98.78 189.69 98.15 186.225 97.925 183.75ZM81.41 190.77H68.27V195.675H81.41V190.77ZM70.115 190.77H65.12C65.12 190.77 65.12 192.525 65.165 193.2C65.75 213.45 66.29 220.605 68.135 222.99C69.395 224.745 70.655 225.24 72.5 225.51C74.21 225.78 76.955 225.735 79.565 225.6C79.655 224.115 80.375 221.82 81.365 220.38C78.44 220.605 75.74 220.65 74.615 220.65C73.715 220.65 73.22 220.47 72.635 219.84C71.195 218.31 70.61 210.57 70.115 191.805V190.77ZM81.275 183.795L76.1 185.01C77.855 191.67 80.78 198.51 83.84 202.83C84.83 201.93 87.035 200.4 88.295 199.68C85.28 195.9 82.715 189.78 81.275 183.795ZM83.48 203.73L79.25 201.345C77.045 204.45 74.075 208.77 72.68 211.425L77.27 214.215C78.485 211.47 81.32 207.06 83.48 203.73ZM60.71 192.525C58.775 192.75 56.345 192.84 54.725 192.84C49.145 192.84 43.07 191.895 38.705 190.5L38.57 195.72C42.44 196.8 48.92 197.97 54.68 197.925C56.48 197.925 58.37 197.88 60.305 197.79L60.71 192.525ZM43.205 185.775C43.79 188.16 44.87 192.57 46.085 196.395C48.155 202.875 52.205 211.245 56.03 216.555L61.475 213.765C57.425 208.815 53.375 200.94 51.62 196.08C50.54 192.84 49.55 188.655 49.415 185.19L43.205 185.775ZM32.63 199.815C32.765 201.705 32.72 203.595 32.675 205.575C32.585 208.23 32.18 214.935 32.18 217.455C32.18 221.64 34.43 224.925 40.865 224.925C46.445 224.925 50.855 222.405 50.855 217.455C50.855 213.09 47.165 209.67 40.91 209.67C33.035 209.67 26.825 213.63 23.09 217.005L26.06 221.865C29.3 218.85 34.43 214.215 41.225 214.215C43.835 214.215 45.545 215.34 45.545 216.915C45.545 218.58 44.105 219.75 41.63 219.75C38.57 219.75 37.58 218.04 37.58 215.52C37.58 212.82 38.075 204.54 38.3 199.815H32.63ZM24.89 202.2C27.5 200.085 32.63 197.16 35.735 195.765L32.81 191.355C29.57 192.75 24.035 195.765 21.695 197.43L24.89 202.2Z" fill="#F5F5F5"/>
</svg>
